<svg xmlns="http://www.w3.org/2000/svg" width="16" height="16" viewBox="0 0 20 20" fill="none"><title>Waiting for quota</title><defs><linearGradient gradientUnits="userSpaceOnUse" id="gP" x1="2" y1="2" x2="18" y2="18"><stop stop-color="#FFF6DB"/><stop offset="1" stop-color="#FFE2A1"/></linearGradient><linearGradient gradientUnits="userSpaceOnUse" id="gQ" x1="2" y1="2" x2="18" y2="18"><stop stop-color="#F1E7FC"/><stop offset="1" stop-color="#DED0F5"/></linearGradient><linearGradient gradientUnits="userSpaceOnUse" id="gR" x1="2" y1="2" x2="18" y2="18"><stop stop-color="#FFF6DB"/><stop offset="1" stop-color="#FFE2A1"/></linearGradient><linearGradient gradientUnits="userSpaceOnUse" id="gL" x1="2" y1="2" x2="18" y2="18"><stop stop-color="#CF8B19"/><stop offset="1" stop-color="#E79729"/></linearGradient><linearGradient gradientUnits="userSpaceOnUse" id="gM" x1="2" y1="2" x2="18" y2="18"><stop stop-color="#9460CE"/><stop offset="1" stop-color="#7760CC"/></linearGradient><linearGradient gradientUnits="userSpaceOnUse" id="gW" x1="2" y1="2" x2="18" y2="18"><stop stop-color="#CF8B19"/><stop offset="1" stop-color="#E79729"/></linearGradient></defs><path d="M5.2 3h9.6M5.2 17h9.6M6 3v3.2c0 2 4 3.8 4 3.8s4-1.8 4-3.8V3M6 17v-3.2c0-2 4-3.8 4-3.8s4 1.8 4 3.8V17" fill="url(#gP)" stroke="url(#gL)" stroke-width="1.08" stroke-linecap="round" stroke-linejoin="round"/><path d="M7.8 14.7h4.4" fill="none" stroke="url(#gM)" stroke-width="1.08" stroke-linecap="round" stroke-linejoin="round"/></svg>